<svg xmlns="http://www.w3.org/2000/svg" xmlns:xlink="http://www.w3.org/1999/xlink" width="164.117" height="48" viewBox="0 0 164.117 48"><defs><style>.a{fill:#292929;}.b{fill:url(#a);}.c{fill:#3a4ca8;}.d{fill:url(#b);}.e{fill:#fff;}.f{fill:url(#c);}.g{fill:url(#d);}.h{fill:url(#e);}.i{fill:url(#f);}.j{fill:url(#g);}</style><linearGradient id="a" x1="0.815" y1="0.259" x2="0.042" y2="0.98" gradientUnits="objectBoundingBox"><stop offset="0" stop-color="#f6cc36"/><stop offset="1" stop-color="#fe8a3b"/></linearGradient><linearGradient id="b" x1="0.733" y1="0.23" x2="-0.056" y2="0.752" xlink:href="#a"/><linearGradient id="c" x1="0.897" y1="0.092" x2="-0.068" y2="0.809" xlink:href="#a"/><linearGradient id="d" x1="0.307" y1="0.673" x2="0.985" y2="-0.126" xlink:href="#a"/><linearGradient id="e" x1="0" y1="0.5" x2="1" y2="0.5" xlink:href="#a"/><linearGradient id="f" x1="0.768" y1="0.184" x2="0.081" y2="1.052" xlink:href="#a"/><linearGradient id="g" x1="0.725" y1="0.229" x2="-0.108" y2="1.217" xlink:href="#a"/></defs><g transform="translate(0 0.003)"><g transform="translate(0 -0.003)"><path class="a" d="M215.712,47.274l-.661,11.985a5.927,5.927,0,0,0,5.918,6.255h5.085a6.4,6.4,0,0,0,6.395-6.039l.671-12.128a5.816,5.816,0,0,0-5.81-6.137h-5.187a6.42,6.42,0,0,0-6.411,6.064Zm9.169,12.78H222.72a1.99,1.99,0,0,1-1.971-2.1l.544-9.144a2.374,2.374,0,0,1,2.371-2.225h1.773a2.524,2.524,0,0,1,2.517,2.673l-.5,8.4A2.543,2.543,0,0,1,224.881,60.054Z" transform="translate(-146.696 -28.111)"/><path class="a" d="M275.292,47.274l-.661,11.985a5.927,5.927,0,0,0,5.921,6.255h5.085a6.408,6.408,0,0,0,6.4-6.04l.667-12.127a5.816,5.816,0,0,0-5.81-6.137H281.7A6.417,6.417,0,0,0,275.292,47.274Zm9.179,12.78H282.3a1.986,1.986,0,0,1-1.983-2.1l.54-9.144a2.374,2.374,0,0,1,2.371-2.225H285a2.524,2.524,0,0,1,2.517,2.673l-.5,8.4a2.562,2.562,0,0,1-2.552,2.4Z" transform="translate(-187.34 -28.111)"/><path class="a" d="M173.892,40.994l-10.806-.044a1.491,1.491,0,0,0-1.465,1.208l-.388,2.447a1.494,1.494,0,0,0,1.475,1.764h7.475L160.55,58.221l-.47,3.477a3.177,3.177,0,0,0,2.946,3.569h11.922a1.2,1.2,0,0,0,1.179-.972l.528-3.01a1.2,1.2,0,0,0-1.179-1.43l-9.169-.054,10.231-12.681.489-2.409A3.156,3.156,0,0,0,173.892,40.994Z" transform="translate(-109.183 -27.934)"/><path class="a" d="M351.234,44.582l-.143,2.682-.922,12.4a6.121,6.121,0,0,1-6.105,5.67h-3.226a.528.528,0,0,1-.528-.582l.4-4.361a.534.534,0,0,1,.528-.48h.731c1.719,0,2.813-.953,2.911-2.19l.658-7.892h0l.048-1.907a1.411,1.411,0,0,0-1.414-1.516l-2.454.029a1.963,1.963,0,0,0-1.907,2.1l-1.271,16.778H333l1-18.145A6.531,6.531,0,0,1,340.533,41h7.31a3.4,3.4,0,0,1,3.391,3.582Z" transform="translate(-227.164 -27.968)"/><path class="b" d="M431.644,64.123l-1.57-2.139-5.915-7.494,6.08-7.024a1.977,1.977,0,0,0-.149-2.74l-1.176-1.087a1.971,1.971,0,0,0-2.832.153l-5.419,6.271-5.457-6.913s-1.519-2-5.158-1.99H399.092a5.861,5.861,0,0,0-5.842,5.451l-.826,12.815c-.235,3.388,3.057,6.055,5.654,6.055h8.534l.785-5.46h-8.314a1.17,1.17,0,0,1-1.166-1.246l.245-2.727h8.645a1.37,1.37,0,0,0,1.367-1.249l.235-2.676a1.37,1.37,0,0,0-1.363-1.5h-8.55l.134-2.133a2.145,2.145,0,0,1,2.145-2.009l8.7.048a2.784,2.784,0,0,1,2.269,1.055l5.273,6.712-4.392,5.079a1.872,1.872,0,0,1-1.414.636l-2.145-.032-.772,5.451,2.914.041a7.548,7.548,0,0,0,5.705-2.609l3.579-4.132,5.3,6.751h5.158a.852.852,0,0,0,.7-1.357Z" transform="translate(-267.693 -28.077)"/><path class="c" d="M.124,14.551,0,33.154a5.4,5.4,0,0,0,2.667,4.691l16.047,9.411a5.4,5.4,0,0,0,5.4.035L40.291,38.1a5.4,5.4,0,0,0,2.727-4.653l.127-18.6a5.4,5.4,0,0,0-2.67-4.691L24.422.739A5.4,5.4,0,0,0,19.019.7L2.86,9.9A5.4,5.4,0,0,0,.124,14.551Z" transform="translate(0 0.003)"/><path class="c" d="M85.442,97.023l-12.694,7.215-.1.051a.753.753,0,0,1-1.109-.671.731.731,0,0,1,.1-.359.719.719,0,0,1,.051-.1,1.269,1.269,0,0,0,.07-.108l7.275-12.4,6.43,3.782a1.491,1.491,0,0,1-.019,2.581Z" transform="translate(-48.803 -61.845)"/><path class="c" d="M48.066,47.1a.636.636,0,0,0-.362.118,1.03,1.03,0,0,1-.111.067L34.9,54.48a4.971,4.971,0,0,1-4.942-.025l-6.236-3.614L16.207,63.659a2.482,2.482,0,0,0,.887,3.4l11.124,6.515,1.452.855a2.7,2.7,0,0,0,.359.178h0a4.961,4.961,0,0,0,4.631-.032.753.753,0,0,1-1.109-.671.731.731,0,0,1,.1-.359.719.719,0,0,1,.06-.1,1.27,1.27,0,0,0,.07-.108l7.275-12.4,7.507-12.808.06-.108h0a.6.6,0,0,0,.029-.067.578.578,0,0,0,.044-.222A.636.636,0,0,0,48.066,47.1Z" transform="translate(-10.823 -32.129)"/><path class="c" d="M50.281,22.22l-.092-.057L39.837,16.07l-2.257-1.325a4.964,4.964,0,0,0-4.98-.035L20.644,21.534a1.983,1.983,0,0,0-.019,3.439l5.67,3.328,6.236,3.614a4.971,4.971,0,0,0,4.942.025l12.694-7.2a1.03,1.03,0,0,0,.111-.067.631.631,0,0,1,1,.518.578.578,0,0,1-.044.222A2.473,2.473,0,0,0,50.281,22.22Z" transform="translate(-13.397 -9.589)"/><path class="d" d="M85.462,94.446l-5.883-3.458-.547-.318-7.275,12.4a.952.952,0,0,1-.07.1.521.521,0,0,0-.051.083.753.753,0,0,0,.655,1.119.791.791,0,0,0,.277-.051.48.48,0,0,0,.083-.038h0a.551.551,0,0,0,.1-.051L85.44,97.02a1.494,1.494,0,0,0,.022-2.574Zm-.318,2.031-12.694,7.215-.079.041a.118.118,0,0,1-.057,0h-.032a.121.121,0,0,1-.048-.029.114.114,0,0,1-.022-.032h0a.086.086,0,0,1,0-.038.155.155,0,0,1,0-.048l.022-.032c.035-.051.07-.1.1-.153l6.929-11.868L85.141,95a.858.858,0,0,1,0,1.481Z" transform="translate(-48.804 -61.852)"/><path class="e" d="M84.41,92.078l-5.88-3.442-.55-.318L77.433,88l-7.6,12.936-.032.051a1.148,1.148,0,0,0-.1.153,1.436,1.436,0,0,0-.172.658,1.3,1.3,0,0,0,0,.194.571.571,0,0,0,.019.1,1.187,1.187,0,0,0,.038.143,1.148,1.148,0,0,0,.051.133,1.348,1.348,0,0,0,.283.413,1.4,1.4,0,0,0,.165.143,1.354,1.354,0,0,0,.814.27h0a1.36,1.36,0,0,0,.6-.137l.051-.025.111-.06,12.694-7.211a2.129,2.129,0,0,0,.025-3.684Zm-.655,2.578L71.061,101.87l-.079.041a.118.118,0,0,1-.057,0h-.032a.121.121,0,0,1-.048-.029.137.137,0,0,1-.022-.032h0a.086.086,0,0,1,0-.038.156.156,0,0,1,0-.048l.022-.032c.035-.051.07-.1.1-.153l6.945-11.868,5.88,3.461a.858.858,0,0,1,0,1.481Z" transform="translate(-47.43 -60.03)"/><path class="f" d="M86.96,97.595a.836.836,0,0,1-.432.737l-12.694,7.215-.079.041a.118.118,0,0,1-.057,0h-.032a.121.121,0,0,1-.048-.029.115.115,0,0,1-.022-.032h0a.086.086,0,0,1,0-.038.156.156,0,0,1,0-.048l.022-.032c.035-.051.07-.1.1-.153L80.661,93.39l5.88,3.461a.842.842,0,0,1,.42.744Z" transform="translate(-50.203 -63.707)"/><path class="g" d="M48.069,47.1a.636.636,0,0,0-.366.118,1.288,1.288,0,0,1-.111.067L34.9,54.48a4.964,4.964,0,0,1-4.939-.025l-6.236-3.614-.318.55-7.2,12.268a2.482,2.482,0,0,0,.887,3.4l11.124,6.515,1.452.855a2.9,2.9,0,0,0,.359.178h0a4.964,4.964,0,0,0,3.464.432,5.047,5.047,0,0,0,1.176-.451.753.753,0,0,1-1.014-1.03.521.521,0,0,1,.051-.108.953.953,0,0,0,.07-.111l7.275-12.4.318-.55,7.186-12.259c.019-.038.041-.073.06-.108h0l.022-.048a.2.2,0,0,0,0-.022.563.563,0,0,0,.044-.219A.636.636,0,0,0,48.069,47.1ZM33.227,73.035l-.032.051a1.15,1.15,0,0,0-.1.153,1.437,1.437,0,0,0-.172.658,1.3,1.3,0,0,0,0,.194.953.953,0,0,0,.019.1,1.189,1.189,0,0,0,.038.143,1.147,1.147,0,0,0,.051.133,4.3,4.3,0,0,1-2.613-.385L30.265,74a2.26,2.26,0,0,1-.28-.137L17.418,66.51a1.847,1.847,0,0,1-.661-2.543l7.192-12.259,5.689,3.305a5.626,5.626,0,0,0,5.575.029L47.9,47.85l.041-.025a.687.687,0,0,0,.1-.06Z" transform="translate(-10.823 -32.129)"/><path class="e" d="M47.6,45.493l-.07-.067a1.271,1.271,0,0,0-.674-.3,1.139,1.139,0,0,0-.149,0H46.6a1.493,1.493,0,0,0-.238.041,1.243,1.243,0,0,0-.222.086,1.316,1.316,0,0,0-.159.1.34.34,0,0,1-.067.041L33.224,52.578a4.338,4.338,0,0,1-4.307-.022l-6.233-3.614-.55-.318-.318.547-.318.547L14.3,61.989a3.121,3.121,0,0,0,1.112,4.268L27.98,73.624a3.62,3.62,0,0,0,.4.2,5.584,5.584,0,0,0,5.181-.016l.051-.025-.311-.563-.3-.559a.118.118,0,0,1-.057,0h-.032a.121.121,0,0,1-.048-.029.114.114,0,0,1-.022-.032h0a.086.086,0,0,1,0-.038.156.156,0,0,1,0-.048l.022-.032c.035-.051.07-.1.1-.153L39.92,60.463l.318-.547.318-.547,7.2-12.278.137-.254v-.029h0a1.3,1.3,0,0,0,.073-.413A1.271,1.271,0,0,0,47.6,45.493ZM31.867,71.685l-.032.051a1.15,1.15,0,0,0-.1.153,1.437,1.437,0,0,0-.172.658,1.3,1.3,0,0,0,0,.194.572.572,0,0,0,.019.1,1.189,1.189,0,0,0,.038.143,1.147,1.147,0,0,0,.051.133,4.3,4.3,0,0,1-2.613-.385l-.156-.079a2.263,2.263,0,0,1-.28-.137L16.058,65.161a1.847,1.847,0,0,1-.661-2.543l7.192-12.259h0l5.689,3.305a5.626,5.626,0,0,0,5.575.029L46.544,46.5l.041-.025a.686.686,0,0,0,.1-.06Z" transform="translate(-9.463 -30.78)"/><path class="h" d="M49.4,49.16,34.582,74.44l-.032.051a1.149,1.149,0,0,0-.1.153,1.437,1.437,0,0,0-.172.658,1.3,1.3,0,0,0,0,.194.572.572,0,0,0,.019.1,1.189,1.189,0,0,0,.038.143,1.148,1.148,0,0,0,.051.133,4.3,4.3,0,0,1-2.613-.385l-.156-.079a2.26,2.26,0,0,1-.28-.137L18.773,67.915a1.847,1.847,0,0,1-.661-2.543L25.3,53.114l5.689,3.305a5.626,5.626,0,0,0,5.575.029l12.691-7.192.041-.025A.687.687,0,0,0,49.4,49.16Z" transform="translate(-12.178 -33.535)"/><path class="i" d="M51.47,24.234a2.47,2.47,0,0,0-1.189-2.015l-.092-.057L39.837,16.069l-2.257-1.325a4.971,4.971,0,0,0-4.98-.038L20.644,21.532a1.983,1.983,0,0,0-.019,3.439l5.123,3.007.55.318,6.236,3.617a4.964,4.964,0,0,0,4.939.025l12.694-7.2a1.286,1.286,0,0,0,.111-.067.636.636,0,0,1,.988.518.563.563,0,0,1-.045.219,2.457,2.457,0,0,0,.248-1.179Zm-.823-.318h-.108a.985.985,0,0,0-.238.041,1.243,1.243,0,0,0-.222.086,1.316,1.316,0,0,0-.159.1.34.34,0,0,1-.067.041L37.158,31.385a4.338,4.338,0,0,1-4.307-.022l-6.233-3.614-5.673-3.328a1.351,1.351,0,0,1,0-2.339l11.969-6.824a4.348,4.348,0,0,1,4.345.032L49.846,22.7l.1.067a1.827,1.827,0,0,1,.845,1.17,1.141,1.141,0,0,0-.149-.01Z" transform="translate(-13.397 -9.587)"/><path class="e" d="M49.253,20.29,36.54,12.812a5.616,5.616,0,0,0-5.619-.038L18.974,19.6a2.622,2.622,0,0,0-.025,4.539l5.123,3.007.55.318.547.318h0L30.858,31.1a5.626,5.626,0,0,0,5.575.029l12.691-7.192.041-.025a.527.527,0,0,0,.114-.1l.582.261.578.257a.814.814,0,0,0,.035-.076h0a3.089,3.089,0,0,0-1.22-3.96Zm.038,2.25h-.108a.985.985,0,0,0-.238.041,1.243,1.243,0,0,0-.222.086,1.316,1.316,0,0,0-.159.1.34.34,0,0,1-.067.041L35.8,30.009a4.338,4.338,0,0,1-4.307-.022l-6.233-3.614-5.673-3.328a1.351,1.351,0,0,1,0-2.339L31.56,13.883a4.348,4.348,0,0,1,4.345.032L48.491,21.32l.1.067a1.827,1.827,0,0,1,.845,1.17,1.141,1.141,0,0,0-.149-.01Z" transform="translate(-12.042 -8.212)"/><path class="j" d="M52.151,25.3a1.14,1.14,0,0,0-.149,0h-.108a.985.985,0,0,0-.238.041,1.242,1.242,0,0,0-.222.086,1.316,1.316,0,0,0-.159.1.34.34,0,0,1-.067.041L38.513,32.752a4.338,4.338,0,0,1-4.307-.022l-6.233-3.614L22.3,25.788a1.351,1.351,0,0,1,0-2.339L34.27,16.626a4.348,4.348,0,0,1,4.345.032L51.2,24.063l.1.067a1.827,1.827,0,0,1,.845,1.17Z" transform="translate(-14.753 -10.955)"/></g></g></svg>