<svg xmlns="http://www.w3.org/2000/svg" width="32" height="32" viewBox="0 0 32 32">
  <g id="Group_3086" data-name="Group 3086" transform="translate(-1848 -40)">
    <rect id="Rectangle_2009" data-name="Rectangle 2009" width="32" height="32" transform="translate(1848 40)" fill="none"/>
    <g id="B10" transform="translate(1849.805 42.001)">
      <g id="Layer_2" data-name="Layer 2" transform="translate(-0.06 0)" style="isolation: isolate">
        <g id="Layer_1" data-name="Layer 1">
          <path id="Path_2790" data-name="Path 2790" d="M28.234,7.882a3.271,3.271,0,0,1-2.41,1.84,2.762,2.762,0,0,1-.381.026c-1.858,0-3.582-1.919-3.922-4.361A5.815,5.815,0,0,1,22.1,1.82,3.274,3.274,0,0,1,24.484.026,2.794,2.794,0,0,1,24.864,0c1.861,0,3.582,1.919,3.922,4.361A5.815,5.815,0,0,1,28.234,7.882Z" transform="translate(-15.198 0)" fill="#3a4ba7"/>
          <path id="Path_2791" data-name="Path 2791" d="M58.439,5.376c-.34,2.451-2.064,4.361-3.925,4.361a2.753,2.753,0,0,1-.378-.026,3.276,3.276,0,0,1-2.41-1.84,5.844,5.844,0,0,1-.552-3.509C51.514,1.919,53.235,0,55.1,0a2.762,2.762,0,0,1,.381.026,3.259,3.259,0,0,1,2.378,1.785,5.814,5.814,0,0,1,.584,3.564Z" transform="translate(-36.231 0)" fill="#505fb1"/>
          <path id="Path_2792" data-name="Path 2792" d="M83.334,27.028c-.462,1.8-1.771,3.053-3.181,3.053h0a2.3,2.3,0,0,1-.581-.073c-1.579-.407-2.4-2.349-1.866-4.425a3.657,3.657,0,0,1,3.2-3.053,2.326,2.326,0,0,1,.581.073C83.046,23.013,83.866,24.958,83.334,27.028Z" transform="translate(-54.982 -15.98)" fill="#505fb1"/>
          <path id="Path_2793" data-name="Path 2793" d="M29.574,42.01v12.5a.448.448,0,0,1-.227-.058,17.172,17.172,0,0,1-6.541-5.565A6.45,6.45,0,0,1,21.78,43.76a4.594,4.594,0,0,1,4.338-3.59A4.314,4.314,0,0,1,29.574,42.01Z" transform="translate(-15.311 -28.491)" fill="#3a4ba7"/>
          <path id="Path_2794" data-name="Path 2794" d="M3.885,30.028A2.326,2.326,0,0,1,3.3,30.1c-1.416,0-2.724-1.256-3.2-3.053a4.538,4.538,0,0,1,.11-2.774,2.617,2.617,0,0,1,1.776-1.651,2.361,2.361,0,0,1,.581-.073c1.416,0,2.724,1.256,3.2,3.053C6.284,27.678,5.464,29.621,3.885,30.028Z" transform="translate(0.06 -15.994)" fill="#3a4ba7"/>
          <path id="Path_2795" data-name="Path 2795" d="M55.781,48.917a17.19,17.19,0,0,1-6.547,5.576.445.445,0,0,1-.224.058V42.05a4.324,4.324,0,0,1,3.46-1.84A4.6,4.6,0,0,1,56.81,43.8,6.47,6.47,0,0,1,55.781,48.917Z" transform="translate(-34.744 -28.52)" fill="#505fb1"/>
          <circle id="Ellipse_421" data-name="Ellipse 421" cx="3.213" cy="3.213" r="3.213" transform="translate(10.975 15.019)" fill="#ffb800"/>
          <circle id="Ellipse_422" data-name="Ellipse 422" cx="1.448" cy="1.448" r="1.448" transform="translate(12.74 16.784)" fill="#f6f3f2"/>
          <circle id="Ellipse_423" data-name="Ellipse 423" cx="6.504" cy="6.504" r="6.504" transform="translate(7.762 14.993)" fill="#a7afd8" style="mix-blend-mode: color-burn;isolation: isolate"/>
        </g>
      </g>
    </g>
  </g>
</svg>
