<svg xmlns="http://www.w3.org/2000/svg" viewBox="0 0 32 32"><title>Asset 1otherdpi</title><g style="isolation:isolate"><g id="Layer_2" data-name="Layer 2"><g id="Layer_1-2" data-name="Layer 1"><g id="Group_2923" data-name="Group 2923"><rect id="Rectangle_2009" data-name="Rectangle 2009" width="32" height="32" style="fill:none"/><g id="Asset_6" data-name="Asset 6"><path id="Path_2133" data-name="Path 2133" d="M16.16,7.44v20H6.79A2.77,2.77,0,0,1,4,24.63V10.2A2.76,2.76,0,0,1,6.79,7.44Z" style="fill:#3a4ba7"/><path id="Path_2134" data-name="Path 2134" d="M28.29,10.2V24.63a2.75,2.75,0,0,1-1.49,2.45,2.67,2.67,0,0,1-1.27.3H16.16V7.44h9.37A2.76,2.76,0,0,1,28.29,10.2Z" style="fill:#505fb1"/><path id="Path_2135" data-name="Path 2135" d="M20,17.33h4.33a.91.91,0,0,1,.93.91h0v9.16H19V18.24A.91.91,0,0,1,20,17.33Z" style="fill:#929bce"/><path id="Path_2136" data-name="Path 2136" d="M26.11,4.59h-20A3.36,3.36,0,0,0,3,6.65L1,11.41H31L29.24,6.76A3.34,3.34,0,0,0,26.11,4.59Z" style="fill:#ffb900"/><path id="Path_2137" data-name="Path 2137" d="M8.77,11.39A2.37,2.37,0,0,1,4,11.56v-.17Z" style="fill:#929bce"/><path id="Path_2138" data-name="Path 2138" d="M12.69,11.39A2.37,2.37,0,0,1,8,11.56a.49.49,0,0,1,0-.17Z" style="fill:#929bce"/><path id="Path_2139" data-name="Path 2139" d="M16.6,11.39a2.38,2.38,0,0,1-4.75.17v-.17Z" style="fill:#929bce"/><path id="Path_2140" data-name="Path 2140" d="M20.5,11.39a2.37,2.37,0,0,1-4.74.17v-.17Z" style="fill:#929bce"/><path id="Path_2141" data-name="Path 2141" d="M24.41,11.39a2.37,2.37,0,0,1-4.74.17.49.49,0,0,1,0-.17Z" style="fill:#929bce"/><path id="Path_2142" data-name="Path 2142" d="M28.32,11.39a2.38,2.38,0,0,1-4.75.17v-.17Z" style="fill:#929bce"/><ellipse id="Ellipse_298" data-name="Ellipse 298" cx="16.2" cy="13.19" rx="5.23" ry="5.44" style="fill:#989ba3;mix-blend-mode:color-burn"/><circle id="Ellipse_299" data-name="Ellipse 299" cx="16.2" cy="13.19" r="1.84" style="fill:#fff"/></g></g></g></g></g></svg>