<svg xmlns="http://www.w3.org/2000/svg" xmlns:xlink="http://www.w3.org/1999/xlink" width="32.359" height="36" viewBox="0 0 32.359 36"><defs><style>.a{fill:#3a4ca8;}.b{fill:url(#a);}.c{fill:#fff;}.d{fill:url(#b);}.e{fill:url(#c);}.f{fill:url(#d);}.g{fill:url(#e);}.h{fill:url(#f);}</style><linearGradient id="a" x1="0.733" y1="0.23" x2="-0.056" y2="0.752" gradientUnits="objectBoundingBox"><stop offset="0" stop-color="#f6cc36"/><stop offset="1" stop-color="#fe8a3b"/></linearGradient><linearGradient id="b" x1="0.897" y1="0.092" x2="-0.068" y2="0.809" xlink:href="#a"/><linearGradient id="c" x1="0.307" y1="0.673" x2="0.985" y2="-0.126" xlink:href="#a"/><linearGradient id="d" x1="0" y1="0.5" x2="1" y2="0.5" xlink:href="#a"/><linearGradient id="e" x1="0.768" y1="0.184" x2="0.081" y2="1.052" xlink:href="#a"/><linearGradient id="f" x1="0.725" y1="0.229" x2="-0.108" y2="1.217" xlink:href="#a"/></defs><path class="a" d="M.093,10.913,0,24.864a4.052,4.052,0,0,0,2,3.518l12.035,7.058a4.052,4.052,0,0,0,4.052.026l12.131-6.9a4.052,4.052,0,0,0,2.045-3.49l.1-13.952a4.052,4.052,0,0,0-2-3.518L18.316.553A4.052,4.052,0,0,0,14.264.527L2.145,7.421A4.052,4.052,0,0,0,.093,10.913Z" transform="translate(0 0.003)"/><path class="a" d="M81.966,95.432l-9.52,5.411-.074.038a.565.565,0,0,1-.832-.5.548.548,0,0,1,.072-.269.537.537,0,0,1,.038-.072.956.956,0,0,0,.052-.081l5.456-9.3L81.981,93.5a1.118,1.118,0,0,1-.014,1.936Z" transform="translate(-54.487 -69.049)"/><path class="a" d="M40.016,47.1a.477.477,0,0,0-.272.088.773.773,0,0,1-.083.05l-9.52,5.4a3.728,3.728,0,0,1-3.707-.019l-4.677-2.71-5.635,9.613a1.862,1.862,0,0,0,.665,2.548l8.343,4.887,1.089.641a2.025,2.025,0,0,0,.269.133h0a3.721,3.721,0,0,0,3.473-.024.565.565,0,0,1-.832-.5.548.548,0,0,1,.072-.269.54.54,0,0,1,.045-.072.953.953,0,0,0,.052-.081l5.456-9.3,5.63-9.606.045-.081h0a.451.451,0,0,0,.021-.05.434.434,0,0,0,.033-.167A.477.477,0,0,0,40.016,47.1Z" transform="translate(-12.084 -35.872)"/><path class="a" d="M42.621,20.179l-.069-.043-7.764-4.57L33.1,14.573a3.723,3.723,0,0,0-3.735-.026l-8.967,5.118a1.487,1.487,0,0,0-.014,2.579l4.253,2.5,4.677,2.71a3.728,3.728,0,0,0,3.707.019l9.52-5.4a.773.773,0,0,0,.083-.05.473.473,0,0,1,.748.389.434.434,0,0,1-.033.167A1.855,1.855,0,0,0,42.621,20.179Z" transform="translate(-14.958 -10.706)"/><path class="b" d="M81.982,93.5,77.57,90.908l-.41-.238-5.456,9.3a.712.712,0,0,1-.052.079.391.391,0,0,0-.038.062.565.565,0,0,0,.491.839.593.593,0,0,0,.207-.038.36.36,0,0,0,.062-.029h0a.413.413,0,0,0,.072-.038l9.52-5.409a1.12,1.12,0,0,0,.017-1.931Zm-.238,1.523-9.52,5.411-.06.031a.088.088,0,0,1-.043,0H72.1a.091.091,0,0,1-.036-.021.086.086,0,0,1-.017-.024h0a.065.065,0,0,1,0-.029.117.117,0,0,1,0-.036l.017-.024c.026-.038.052-.079.074-.114l5.2-8.9,4.41,2.6a.644.644,0,0,1,0,1.111Z" transform="translate(-54.489 -69.056)"/><path class="c" d="M80.689,91.058l-4.41-2.582-.412-.238L75.457,88l-5.7,9.7-.024.038a.865.865,0,0,0-.074.114,1.078,1.078,0,0,0-.129.493.972.972,0,0,0,0,.145.428.428,0,0,0,.014.076.894.894,0,0,0,.029.107.863.863,0,0,0,.038.1,1.011,1.011,0,0,0,.212.31,1.052,1.052,0,0,0,.124.107,1.016,1.016,0,0,0,.61.2h0a1.02,1.02,0,0,0,.453-.1l.038-.019.083-.045,9.52-5.409a1.6,1.6,0,0,0,.019-2.763ZM80.2,92.991,70.678,98.4l-.06.031a.089.089,0,0,1-.043,0h-.024a.091.091,0,0,1-.036-.021.1.1,0,0,1-.017-.024h0a.065.065,0,0,1,0-.029.118.118,0,0,1,0-.036l.017-.024c.026-.038.052-.079.074-.114l5.208-8.9,4.41,2.6a.644.644,0,0,1,0,1.111Z" transform="translate(-52.955 -67.023)"/><path class="d" d="M83.618,96.544a.627.627,0,0,1-.324.553l-9.52,5.411-.06.031a.088.088,0,0,1-.043,0h-.024a.091.091,0,0,1-.036-.021.086.086,0,0,1-.017-.024h0a.064.064,0,0,1,0-.029.116.116,0,0,1,0-.036l.017-.024c.026-.038.052-.079.074-.114l5.208-8.9,4.41,2.6a.632.632,0,0,1,.315.558Z" transform="translate(-56.051 -71.128)"/><path class="e" d="M40.018,47.1a.477.477,0,0,0-.274.088.964.964,0,0,1-.083.05l-9.52,5.4a3.723,3.723,0,0,1-3.7-.019l-4.677-2.71-.238.412-5.4,9.2a1.862,1.862,0,0,0,.665,2.548l8.343,4.887,1.089.641a2.176,2.176,0,0,0,.269.133h0a3.723,3.723,0,0,0,2.6.324,3.785,3.785,0,0,0,.882-.338.565.565,0,0,1-.76-.772.391.391,0,0,1,.038-.081.712.712,0,0,0,.052-.083l5.456-9.3.238-.412,5.39-9.194c.014-.029.031-.055.045-.081h0l.017-.036a.152.152,0,0,0,0-.017.422.422,0,0,0,.033-.164A.477.477,0,0,0,40.018,47.1ZM28.887,66.551l-.024.038a.861.861,0,0,0-.074.114,1.077,1.077,0,0,0-.129.493.973.973,0,0,0,0,.145.715.715,0,0,0,.014.076.892.892,0,0,0,.029.107.859.859,0,0,0,.038.1,3.228,3.228,0,0,1-1.959-.288l-.117-.06a1.7,1.7,0,0,1-.21-.1L17.03,61.657a1.385,1.385,0,0,1-.5-1.907l5.394-9.194L26.2,53.035a4.219,4.219,0,0,0,4.181.021l9.518-5.394.031-.019A.515.515,0,0,0,40,47.6Z" transform="translate(-12.084 -35.872)"/><path class="c" d="M39.17,45.4l-.052-.05a.953.953,0,0,0-.505-.226.853.853,0,0,0-.112,0h-.081a1.12,1.12,0,0,0-.179.031.933.933,0,0,0-.167.064.988.988,0,0,0-.119.072.255.255,0,0,1-.05.031l-9.518,5.392a3.254,3.254,0,0,1-3.23-.017l-4.674-2.71-.412-.238-.238.41-.238.41-5.4,9.2a2.341,2.341,0,0,0,.834,3.2L24.453,66.5a2.714,2.714,0,0,0,.3.15,4.188,4.188,0,0,0,3.885-.012l.038-.019-.234-.422-.224-.42a.088.088,0,0,1-.043,0h-.024a.091.091,0,0,1-.036-.021.086.086,0,0,1-.017-.024h0a.064.064,0,0,1,0-.029.117.117,0,0,1,0-.036l.017-.024c.026-.038.052-.079.074-.114l5.218-8.9.238-.41.238-.41,5.4-9.208.1-.191v-.021h0a.975.975,0,0,0,.055-.31A.953.953,0,0,0,39.17,45.4Zm-11.8,19.644-.024.038a.862.862,0,0,0-.074.114,1.077,1.077,0,0,0-.129.493.973.973,0,0,0,0,.145.429.429,0,0,0,.014.076.891.891,0,0,0,.029.107.859.859,0,0,0,.038.1,3.228,3.228,0,0,1-1.959-.288l-.117-.06a1.7,1.7,0,0,1-.21-.1l-9.425-5.518a1.385,1.385,0,0,1-.5-1.907L20.41,49.05h0l4.267,2.479a4.219,4.219,0,0,0,4.181.021l9.518-5.394.031-.019a.515.515,0,0,0,.074-.045Z" transform="translate(-10.565 -34.366)"/><path class="f" d="M41.512,49.16,30.4,68.12l-.024.038a.862.862,0,0,0-.074.114,1.078,1.078,0,0,0-.129.493.974.974,0,0,0,0,.145.429.429,0,0,0,.014.076.894.894,0,0,0,.029.107.861.861,0,0,0,.038.1,3.228,3.228,0,0,1-1.959-.288l-.117-.06a1.7,1.7,0,0,1-.21-.1l-9.425-5.518a1.385,1.385,0,0,1-.5-1.907l5.394-9.194L27.708,54.6a4.219,4.219,0,0,0,4.181.021l9.518-5.394.031-.019A.514.514,0,0,0,41.512,49.16Z" transform="translate(-13.597 -37.441)"/><path class="g" d="M43.512,21.689a1.852,1.852,0,0,0-.891-1.511l-.069-.043-7.764-4.57L33.1,14.571a3.728,3.728,0,0,0-3.735-.029l-8.967,5.12a1.487,1.487,0,0,0-.014,2.579L24.221,24.5l.412.238,4.677,2.713a3.723,3.723,0,0,0,3.7.019l9.52-5.4a.967.967,0,0,0,.083-.05.477.477,0,0,1,.741.389.422.422,0,0,1-.033.164,1.843,1.843,0,0,0,.186-.884Zm-.617-.238h-.081a.739.739,0,0,0-.179.031.932.932,0,0,0-.167.064.986.986,0,0,0-.119.072.256.256,0,0,1-.05.031l-9.52,5.4a3.254,3.254,0,0,1-3.23-.017l-4.674-2.71-4.255-2.5a1.013,1.013,0,0,1,0-1.754L29.6,14.958a3.261,3.261,0,0,1,3.259.024l9.439,5.554.079.05a1.371,1.371,0,0,1,.634.877.857.857,0,0,0-.112-.007Z" transform="translate(-14.958 -10.704)"/><path class="c" d="M41.353,18.228l-9.535-5.609A4.212,4.212,0,0,0,27.6,12.59l-8.96,5.123a1.967,1.967,0,0,0-.019,3.4l3.843,2.255.412.238.41.238h0l4.267,2.484a4.219,4.219,0,0,0,4.181.021l9.518-5.394.031-.019a.4.4,0,0,0,.086-.074l.436.2.434.193a.611.611,0,0,0,.026-.057h0A2.317,2.317,0,0,0,41.353,18.228Zm.029,1.688H41.3a.739.739,0,0,0-.179.031.932.932,0,0,0-.167.064.987.987,0,0,0-.119.072.255.255,0,0,1-.05.031l-9.52,5.4a3.254,3.254,0,0,1-3.23-.017l-4.674-2.71-4.255-2.5a1.013,1.013,0,0,1,0-1.754l8.977-5.118a3.261,3.261,0,0,1,3.259.024L40.781,19l.079.05a1.371,1.371,0,0,1,.634.877.857.857,0,0,0-.112-.007Z" transform="translate(-13.445 -9.169)"/><path class="h" d="M44.52,22.989a.856.856,0,0,0-.112,0h-.081a.739.739,0,0,0-.179.031.932.932,0,0,0-.167.064.987.987,0,0,0-.119.072.255.255,0,0,1-.05.031l-9.52,5.392a3.254,3.254,0,0,1-3.23-.017l-4.674-2.71-4.255-2.5a1.013,1.013,0,0,1,0-1.754l8.977-5.118a3.261,3.261,0,0,1,3.259.024l9.439,5.554.079.05A1.371,1.371,0,0,1,44.52,22.989Z" transform="translate(-16.471 -12.231)"/></svg>