<svg xmlns="http://www.w3.org/2000/svg" width="32" height="32" viewBox="0 0 32 32">
  <g id="Group_2407" data-name="Group 2407" transform="translate(-1848 -40)">
    <rect id="Rectangle_2009" data-name="Rectangle 2009" width="32" height="32" transform="translate(1848 40)" fill="none"/>
    <g id="B7" transform="translate(1850 45.949)" style="isolation: isolate">
      <g id="Layer_2" data-name="Layer 2" transform="translate(0 0)">
        <g id="Layer_1" data-name="Layer 1" transform="translate(0 0)">
          <path id="Path_2034" data-name="Path 2034" d="M84.014,30.686H72V18.67c.195,0,.376,0,.565.014a1.647,1.647,0,0,1,.28.016c.086.016.195.014.277.025.288.027.573.06.849.109l.28.049c.279.053.553.115.826.195l.269.074a11.88,11.88,0,0,1,2.057.81c.084.039.162.082.243.123.241.134.479.269.711.415l.092.056c.123.078.245.16.364.241.08.055.158.113.24.166a.956.956,0,0,0,.1.076c.1.076.195.154.3.226h0a.244.244,0,0,0,.019.018c.072.055.14.113.21.169.162.132.317.273.469.413.047.045.092.09.138.13h0a12.034,12.034,0,0,1,.927.991l.171.21.167.214.158.208.164.23c.051.078.1.154.152.232s.1.146.148.222l.142.238c.093.156.195.314.271.475.039.07.072.138.109.208s.064.127.1.195a11.752,11.752,0,0,1,.779,2.061,2.223,2.223,0,0,1,.058.216c.023.072.039.144.056.22s.027.113.039.169c.066.288.117.584.158.874.027.167.047.343.066.516l.018.183a.934.934,0,0,0,.01.166c0,.1.018.195.019.292a.9.9,0,0,1,0,.1C84.013,30.367,84.014,30.525,84.014,30.686Z" transform="translate(-57.978 -15.034)" fill="#2e4aaa"/>
          <path id="Path_2035" data-name="Path 2035" d="M22.308,18.67V30.686H10.29a11.843,11.843,0,0,1,.125-1.737,11.993,11.993,0,0,1,3.806-7.157h0a13.2,13.2,0,0,1,1.124-.906c.156-.111.316-.216.477-.323.084-.051.167-.1.247-.154.249-.15.5-.29.761-.425l.261-.13c.177-.084.353-.164.532-.241s.36-.144.547-.214A12.007,12.007,0,0,1,22.308,18.67Z" transform="translate(-8.286 -15.034)" fill="#475fb4"/>
          <circle id="Ellipse_245" data-name="Ellipse 245" cx="1.488" cy="1.488" r="1.488" transform="translate(12.517)" fill="#2e4aaa"/>
          <path id="Path_2036" data-name="Path 2036" d="M.372,80.41H28.3v1.324a3.116,3.116,0,0,1-3.116,3.116H3.486A3.116,3.116,0,0,1,.37,81.734V80.41Z" transform="translate(-0.298 -64.75)" fill="#ffb900"/>
          <ellipse id="Ellipse_246" data-name="Ellipse 246" cx="4.822" cy="5.015" rx="4.822" ry="5.015" transform="translate(0 3.192)" fill="#a4b0da" style="mix-blend-mode: color-burn;isolation: isolate"/>
          <circle id="Ellipse_247" data-name="Ellipse 247" cx="1.69" cy="1.69" r="1.69" transform="translate(3.132 6.517)" fill="#fff"/>
        </g>
      </g>
    </g>
  </g>
</svg>
