<svg xmlns="http://www.w3.org/2000/svg" width="32" height="32" viewBox="0 0 32 32">
  <g id="Group_2415" data-name="Group 2415" transform="translate(-1848 -40)">
    <rect id="Rectangle_2009" data-name="Rectangle 2009" width="32" height="32" transform="translate(1848 40)" fill="none"/>
    <g id="B1" transform="translate(1850.012 41.995)" style="isolation: isolate">
      <g id="Layer_2" data-name="Layer 2" transform="translate(-0.011 -0.015)">
        <g id="Layer_1" data-name="Layer 1" transform="translate(0 0)">
          <path id="Path_2009" data-name="Path 2009" d="M22.831,10.257a2.108,2.108,0,0,0-1.75-3.647A2.111,2.111,0,0,0,17.925,4.1a2.108,2.108,0,0,0-3.934-.9,2.108,2.108,0,0,0-3.882.564h0a1.98,1.98,0,0,0-.458.119l.1.045-.1-.045H9.637a1.5,1.5,0,0,0-.173-.062h0C9.4,3.8,9.34,3.788,9.276,3.774h-.04L9.089,3.75h-.42l-.111.014H8.5l-.114.024H8.335l-.119.036-.047.014-.121.047-.04.017-.13.064-.028.014a2.023,2.023,0,0,0-.3.2L7.528,4.2l-.095.081-.043.04-.071.076-.036.036c-.031.036-.059.071-.088.109l-.033.043-.057.081-.031.047c-.024.038-.047.078-.069.119l-.021.04c-.014.031-.031.062-.043.092a.474.474,0,0,0-.024.05c-.014.036-.028.071-.04.107l-.014.038c-.014.04-.026.083-.038.123s0,.033-.012.05l-.021.1v.043c0,.014-.014.092-.019.138a.107.107,0,0,0,0,.045V6a.5.5,0,0,0,0,.062.7.7,0,0,0,.019.123.184.184,0,0,1,0,.064c0,.021.021.085.031.128l.014.052c.019.059.038.119.062.178l-.095,0h-.55l-.071.014L6.1,6.641l-.069.017-.083.024L5.883,6.7,5.8,6.733l-.062.026L5.643,6.8,5.6,6.826c-.045.024-.09.047-.135.076l-.026.017a1.013,1.013,0,0,0-.1.071l-.045.033L5.2,7.086l-.045.04L5.088,7.2l-.045.045-.064.081-.04.05c-.021.026-.043.052-.062.081l-.038.05c-.021.031-.04.062-.059.092l-.028.045c-.026.047-.052.092-.076.142h0c-.021.047-.043.095-.059.14s0,.031-.019.045-.026.078-.038.116a.221.221,0,0,0,0,.031q-.021.071-.036.142a.306.306,0,0,0,0,.045.95.95,0,0,1-.019.114.209.209,0,0,0,0,.038v.142a.258.258,0,0,1,0,.043v.325a.25.25,0,0,0,.017.109v.04a.538.538,0,0,0,.031.133l.014.043a.321.321,0,0,0,.033.1.258.258,0,0,0,0,.04c.017.04.033.083.052.123a.337.337,0,0,1,.019.043l.05.1a.314.314,0,0,0,.019.033c.007.009.045.078.069.116l.028.04.066.092L4.92,10c.028.036.057.069.088.1l.031.036c.031.033.064.064.1.095h0a2.115,2.115,0,0,0-1.5,2.016h0a.712.712,0,0,0,0,.074c0,.033,0,.069,0,.1v.047l.014.126v.031a.568.568,0,0,0,.028.138.185.185,0,0,0,.012.033,1.131,1.131,0,0,0,.036.128l.024.057a.27.27,0,0,0,.038.1c.014.031.028.059.043.088l.057.076c.021.04.045.078.069.116a.1.1,0,0,0,.017.026,2.106,2.106,0,0,0,1.171.892h0l-.1.1-.028.028-.095.111v.014c-.026.033-.052.069-.076.1a.308.308,0,0,0-.024.036,1.231,1.231,0,0,0-.074.119.1.1,0,0,0-.012.021c-.021.038-.038.074-.057.111l-.017.036c-.019.043-.038.088-.055.133v.024c-.014.038-.026.078-.038.119s0,.024,0,.033c-.014.047-.024.095-.033.14a.123.123,0,0,0,0,.026,1.16,1.16,0,0,0-.021.126.121.121,0,0,1,0,.031v.3a.156.156,0,0,0,0,.033v.149a.119.119,0,0,1,0,.028,1.224,1.224,0,0,0,.021.123v.04a.538.538,0,0,0,.036.145v.026c.014.04.026.081.043.121a.318.318,0,0,0,.017.043,1,1,0,0,0,.059.138h0l.071.135a.567.567,0,0,1,.031.05l.059.09.038.052.059.078.043.05.064.071.047.047.069.066.047.04c.026.024.052.043.078.064l.047.036c.031.024.066.045.1.066l.031.021c.043.026.088.052.135.076l.043.021.1.045.057.024.09.033.062.019.088.026.064.017.092.019h.062l.1.014h.36a.5.5,0,0,0,.166-.019,1.615,1.615,0,0,0-.062.18q0,.021,0,.043c0,.014-.024.092-.033.138s0,.04-.012.059a.538.538,0,0,0-.017.126v.254a.258.258,0,0,0,0,.043v.152a.463.463,0,0,0,.019.142.185.185,0,0,0,0,.033.5.5,0,0,0,.026.111.275.275,0,0,0,0,.043.451.451,0,0,0,.04.133.057.057,0,0,1,0,.019c.017.04.031.083.05.123a.337.337,0,0,0,.019.043.842.842,0,0,0,.05.1l.014.031c.024.043.047.085.074.126l.024.036a1.055,1.055,0,0,0,.064.092l.026.036c.031.04.062.078.095.114l.024.026.083.088.036.031.111.1h0a1.57,1.57,0,0,0,.147.109l.043.026.109.066.062.031c.031.014.062.033.095.047l.071.028.09.036.076.024.088.026.081.019.088.017a.162.162,0,0,1,.081.014H9.07l.126-.019h.059a.693.693,0,0,0,.18-.045h.036c.047-.014.1-.033.145-.052h.019l.111-.038-.1.047a2,2,0,0,0,.448.126,2.111,2.111,0,0,0,1.582,1.572h0a2.111,2.111,0,0,0,2.3-1.008,2.108,2.108,0,0,0,3.937-.892,2.111,2.111,0,0,0,3.161-2.5,2.108,2.108,0,0,0,1.76-3.633,2.111,2.111,0,0,0,1.5-2.011V12.28a2.111,2.111,0,0,0-1.5-2.023ZM10.075,3.925ZM9.888,4l-.111-.057Zm.152.095-.116-.074ZM9.888,20.54q-.069.04-.135.071Q9.817,20.58,9.888,20.54Zm.024,0c.045-.026.088-.055.13-.083h0a.82.82,0,0,0-.135.071Z" transform="translate(-2.771 -1.626)" fill="#ffb900"/>
          <path id="Path_2010" data-name="Path 2010" d="M94.131,10.672,92.193,1.366A1.734,1.734,0,0,0,91.14.112h0a1.729,1.729,0,0,0-2.371,1.439L88.33,6.033Z" transform="translate(-67.38 0.015)" fill="#8f9bd0"/>
          <path id="Path_2011" data-name="Path 2011" d="M10.675,93.208,1.369,91.271A1.734,1.734,0,0,1,.115,90.218h0a1.731,1.731,0,0,1,1.439-2.371l4.482-.436Z" transform="translate(0.011 -66.678)" fill="#8f9bd0"/>
          <path id="Path_2012" data-name="Path 2012" d="M36.592,78.744l-7.8,2.4a1.221,1.221,0,0,1-1.534-.823L25.446,74.2a1.224,1.224,0,0,1,.657-1.458l6.55-3.047Z" transform="translate(-19.37 -53.16)" fill="#6074be"/>
          <path id="Path_2013" data-name="Path 2013" d="M78.584,36.75l2.4-7.8a1.224,1.224,0,0,0-.821-1.534l-6.128-1.812a1.221,1.221,0,0,0-1.456.657l-3.05,6.543Z" transform="translate(-53.039 -19.492)" fill="#6074be"/>
          <path id="Path_2014" data-name="Path 2014" d="M59.408,53.028,52.87,59.566a1.326,1.326,0,0,1-1.923-.05l-6.042-6.7a1.328,1.328,0,0,1,.047-1.826l5.881-5.869a1.326,1.326,0,0,1,1.826-.047L59.37,51.1a1.326,1.326,0,0,1,.038,1.923Z" transform="translate(-33.993 -34.119)" fill="#2e4aaa"/>
          <ellipse id="Ellipse_227" data-name="Ellipse 227" cx="5.872" cy="6.106" rx="5.872" ry="6.106" transform="translate(5.068 4.948)" fill="#a4b0da" style="mix-blend-mode: color-burn;isolation: isolate"/>
          <circle id="Ellipse_228" data-name="Ellipse 228" cx="2.058" cy="2.058" r="2.058" transform="translate(8.881 8.996)" fill="#fff"/>
        </g>
      </g>
    </g>
  </g>
</svg>
